<?xml version="1.0" standalone="no"?>
<!DOCTYPE svg PUBLIC "-//W3C//DTD SVG 20010904//EN"
 "http://www.w3.org/TR/2001/REC-SVG-20010904/DTD/svg10.dtd">
<svg version="1.0" xmlns="http://www.w3.org/2000/svg"
 width="354.000000pt" height="354.000000pt" viewBox="0 0 354.000000 354.000000"
 preserveAspectRatio="xMidYMid meet">
<metadata>
Created by potrace 1.14, written by Peter Selinger 2001-2017
</metadata>
<g transform="translate(0.000000,354.000000) scale(0.100000,-0.100000)"
fill="#000000" stroke="none">
<path d="M1830 3351 c-92 -23 -167 -55 -305 -132 -79 -43 -132 -67 -154 -67
-171 -4 -373 -86 -695 -284 -135 -83 -323 -182 -368 -193 -39 -10 -62 -74 -62
-175 0 -104 14 -148 108 -348 36 -75 74 -168 86 -207 11 -38 28 -92 36 -120
16 -51 100 -184 152 -242 220 -245 244 -278 347 -486 l90 -182 78 -41 c125
-66 246 -102 362 -108 98 -5 156 -12 184 -22 23 -8 193 -46 224 -50 138 -19
251 -60 300 -112 23 -24 86 -142 269 -499 l42 -83 264 0 263 0 -82 158 c-97
188 -166 316 -190 357 -35 57 -87 170 -98 210 -18 68 -19 112 -5 205 15 104
36 150 109 240 130 162 167 254 171 420 3 114 -6 182 -38 275 -25 73 -86 180
-129 226 -117 125 -193 273 -295 575 -92 275 -133 371 -206 485 -45 71 -143
176 -182 196 -43 22 -193 24 -276 4z m-276 -684 c145 -220 485 -878 491 -949
4 -49 -11 -95 -35 -108 -36 -19 -114 90 -215 306 -40 84 -97 195 -128 246 -88
148 -164 307 -185 388 -36 137 -36 146 3 168 25 13 28 11 69 -51z m558 49 c10
-7 42 -71 72 -142 29 -71 84 -194 121 -274 143 -308 220 -504 210 -532 -4 -9
-18 -21 -33 -27 -35 -16 -32 -21 -161 239 -124 249 -183 379 -262 580 l-58
145 27 12 c35 16 63 15 84 -1z m-1022 -327 c32 -10 45 -24 93 -103 30 -50 119
-215 197 -366 78 -151 168 -317 200 -370 l58 -95 -20 -22 c-24 -26 -32 -23
-102 38 -66 58 -112 132 -176 281 -68 159 -105 229 -146 277 -31 36 -47 63
-145 249 -61 114 -52 139 41 111z"/>
</g>
</svg>
